# xmcd CD database file
#
# Track frame offsets:
#	150
#	14382
#	29302
#	43365
#	55847
#	70052
#	83145
#	96460
#	109367
#	124285
#	135335
#	149907
#	167415
#	188122
#	209785
#	223395
#	242840
#	260532
#	271565
#	286410
#
# Disc length: 4025 seconds
#
# Revision: 1
# Processed by: cddbd v1.5.1PL0 Copyright (c) Steve Scherf et al.
# Submitted via: CDex 1.51
#
DISCID=3f0fb714
DTITLE=Bud Powell - The Amazing Bud Powell - Complete 1st. and 2nd, sessions
DYEAR=1900
DGENRE=Jazz
TTITLE0=Bouncing With Bud (Alternate Take One)
TTITLE1=Bouncing With Bud (Alterante Take Two)
TTITLE2=Bouncing With Bud (Master Take)
TTITLE3=Wail (Alternate Take)
TTITLE4=Wail (Master Take)
TTITLE5=Dance Of The Infidels (Alternate Take)
TTITLE6=Dance Of The Infidels (Master Take)
TTITLE7=52nd Street Theme
TTITLE8=You Got To My Head
TTITLE9=Ornithology (Master Take)
TTITLE10=Ornithology (Alternate Take)
TTITLE11=Un Poco Loco (Alternate Take One)
TTITLE12=Un Poco Loco (Alternate Take Two)
TTITLE13=Un Poco Loco (Master Take)
TTITLE14=Over The Rainbow
TTITLE15=A Night In Tunisia (Master Take)
TTITLE16=A Night In Tunisia (Alternate Take)
TTITLE17=It Could Happen To You (Alternate Take)
TTITLE18=It Could Happen To You (Master Take)
TTITLE19=Parisian Thorough-Fare
EXTD=
EXTT0=
EXTT1=
EXTT2=
EXTT3=
EXTT4=
EXTT5=
EXTT6=
EXTT7=
EXTT8=
EXTT9=
EXTT10=
EXTT11=
EXTT12=
EXTT13=
EXTT14=
EXTT15=
EXTT16=
EXTT17=
EXTT18=
EXTT19=
PLAYORDER=
